<svg xmlns="http://www.w3.org/2000/svg" xmlns:xlink="http://www.w3.org/1999/xlink" width="16" height="16" viewBox="0 0 16 16">
  <defs>
    <clipPath id="clip-Drone">
      <rect width="16" height="16"/>
    </clipPath>
  </defs>
  <g id="Drone" clip-path="url(#clip-Drone)">
    <rect id="Rectangle_3" data-name="Rectangle 3" width="6" height="6" transform="translate(5 5)"/>
    <rect id="Rectangle_22" data-name="Rectangle 22" width="1" height="1" transform="translate(0 2)"/>
    <rect id="Rectangle_23" data-name="Rectangle 23" width="1" height="1" transform="translate(2)"/>
    <rect id="Rectangle_24" data-name="Rectangle 24" width="1" height="1" transform="translate(1 2)"/>
    <rect id="Rectangle_25" data-name="Rectangle 25" width="1" height="1" transform="translate(2 2)"/>
    <rect id="Rectangle_26" data-name="Rectangle 26" width="1" height="1" transform="translate(2 1)"/>
    <rect id="Rectangle_27" data-name="Rectangle 27" width="1" height="1" transform="translate(1)"/>
    <rect id="Rectangle_28" data-name="Rectangle 28" width="1" height="1" transform="translate(0 1)"/>
    <rect id="Rectangle_29" data-name="Rectangle 29" width="1" height="1"/>
    <rect id="Rectangle_30" data-name="Rectangle 30" width="1" height="1" transform="translate(0 15)"/>
    <rect id="Rectangle_31" data-name="Rectangle 31" width="1" height="1" transform="translate(2 13)"/>
    <rect id="Rectangle_32" data-name="Rectangle 32" width="1" height="1" transform="translate(1 15)"/>
    <rect id="Rectangle_33" data-name="Rectangle 33" width="1" height="1" transform="translate(2 15)"/>
    <rect id="Rectangle_34" data-name="Rectangle 34" width="1" height="1" transform="translate(2 14)"/>
    <rect id="Rectangle_35" data-name="Rectangle 35" width="1" height="1" transform="translate(1 13)"/>
    <rect id="Rectangle_36" data-name="Rectangle 36" width="1" height="1" transform="translate(0 14)"/>
    <rect id="Rectangle_37" data-name="Rectangle 37" width="1" height="1" transform="translate(0 13)"/>
    <rect id="Rectangle_38" data-name="Rectangle 38" width="1" height="1" transform="translate(4 4)"/>
    <rect id="Rectangle_39" data-name="Rectangle 39" width="1" height="1" transform="translate(4 11)"/>
    <rect id="Rectangle_40" data-name="Rectangle 40" width="1" height="1" transform="translate(3 12)"/>
    <rect id="Rectangle_41" data-name="Rectangle 41" width="1" height="1" transform="translate(3 3)"/>
    <rect id="Rectangle_42" data-name="Rectangle 42" width="1" height="1" transform="translate(13 2)"/>
    <rect id="Rectangle_43" data-name="Rectangle 43" width="1" height="1" transform="translate(15)"/>
    <rect id="Rectangle_44" data-name="Rectangle 44" width="1" height="1" transform="translate(14 2)"/>
    <rect id="Rectangle_45" data-name="Rectangle 45" width="1" height="1" transform="translate(15 2)"/>
    <rect id="Rectangle_46" data-name="Rectangle 46" width="1" height="1" transform="translate(15 1)"/>
    <rect id="Rectangle_47" data-name="Rectangle 47" width="1" height="1" transform="translate(14)"/>
    <rect id="Rectangle_48" data-name="Rectangle 48" width="1" height="1" transform="translate(13 1)"/>
    <rect id="Rectangle_49" data-name="Rectangle 49" width="1" height="1" transform="translate(13)"/>
    <rect id="Rectangle_50" data-name="Rectangle 50" width="1" height="1" transform="translate(13 15)"/>
    <rect id="Rectangle_51" data-name="Rectangle 51" width="1" height="1" transform="translate(15 13)"/>
    <rect id="Rectangle_52" data-name="Rectangle 52" width="1" height="1" transform="translate(14 15)"/>
    <rect id="Rectangle_53" data-name="Rectangle 53" width="1" height="1" transform="translate(15 15)"/>
    <rect id="Rectangle_54" data-name="Rectangle 54" width="1" height="1" transform="translate(15 14)"/>
    <rect id="Rectangle_55" data-name="Rectangle 55" width="1" height="1" transform="translate(14 13)"/>
    <rect id="Rectangle_56" data-name="Rectangle 56" width="1" height="1" transform="translate(13 14)"/>
    <rect id="Rectangle_57" data-name="Rectangle 57" width="1" height="1" transform="translate(13 13)"/>
    <rect id="Rectangle_58" data-name="Rectangle 58" width="1" height="1" transform="translate(11 4)"/>
    <rect id="Rectangle_61" data-name="Rectangle 61" width="1" height="1" transform="translate(12 3)"/>
    <rect id="Rectangle_59" data-name="Rectangle 59" width="1" height="1" transform="translate(11 11)"/>
    <rect id="Rectangle_60" data-name="Rectangle 60" width="1" height="1" transform="translate(12 12)"/>
  </g>
</svg>
